<?xml version="1.0" encoding="utf-8"?>
<!-- Generator: Adobe Illustrator 21.0.0, SVG Export Plug-In . SVG Version: 6.00 Build 0)  -->
<svg version="1.1" xmlns="http://www.w3.org/2000/svg" xmlns:xlink="http://www.w3.org/1999/xlink" x="0px" y="0px"
	 viewBox="0 0 100 100" style="enable-background:new 0 0 100 100;" xml:space="preserve">
<style type="text/css">
	.st0{display:none;}
	.st1{fill:#B3B3FC;}
	.st2{fill:#FB5252;}
	.st3{fill:#FFA68F;}
	.st4{fill:#FF8578;}
	.st5{fill:#D7D7FF;}
	.st6{fill:#4949E7;}
	.st7{fill:#C7EBFF;}
	.st8{fill:#5EB2FC;}
	.st9{fill:#2C8CF4;}
	.st10{fill:#92CDFA;}
	.st11{fill:#1273EB;}
	.st12{fill:#E2FFE2;}
	.st13{fill:#8DF690;}
	.st14{fill:#00AF80;}
	.st15{fill:#ABFFAD;}
	.st16{fill:#C7FFC7;}
	.st17{fill:#69E781;}
	.st18{fill:#8080F1;}
	.st19{fill:#2D2DB0;}
	.st20{fill:#202095;}
	.st21{fill:#3636CC;}
	.st22{fill:#0161CD;}
	.st23{fill:#04458F;}
	.st24{fill:#FCD250;}
	.st25{fill:#FFEEB6;}
	.st26{fill:#FFB229;}
	.st27{fill:#5F5FF6;}
	.st28{fill:#2BC48A;}
	.st29{clip-path:url(#SVGID_6_);}
	.st30{fill-rule:evenodd;clip-rule:evenodd;fill:#ABFFAD;}
</style>
<g id="Capa_1" class="st0">
</g>
<g id="Capa_2">
	<rect class="st6" width="100" height="100"/>
	<path class="st7" d="M16,0c0,0,2.4,18.1,2.4,26.1S15,64,24.5,74.5c6.7,7.4,18,9,24,8c1,7,0.5,17.5,0.5,17.5h51V0H16z"/>
	<ellipse class="st6" cx="29" cy="23.7" rx="2.1" ry="2.7"/>
	<ellipse class="st6" cx="59.3" cy="23" rx="2.1" ry="2.7"/>
	<g>
		<g>
			<path class="st8" d="M34.4,52.3c-0.6,0-1.2-0.1-1.8-0.3c-1.6-0.6-2.7-1.8-3.1-3.2c-0.6-2.5,1-3.9,3.1-5.6l0.5-0.4
				c1.5-1.3,1.3-4.5,1.1-5.6c-0.1-0.6,0.3-1.1,0.8-1.2c0.6-0.1,1.1,0.3,1.2,0.8c0.1,0.5,0.9,5.4-1.8,7.6l-0.5,0.4
				c-2,1.7-2.6,2.3-2.4,3.5c0.2,0.7,0.8,1.3,1.7,1.6c0.6,0.2,1.8,0.4,3-0.5c0.5-0.4,1.1-0.3,1.5,0.2c0.4,0.5,0.3,1.1-0.2,1.5
				C36.6,51.9,35.5,52.3,34.4,52.3z"/>
			<path class="st8" d="M34.4,52.8c-0.7,0-1.3-0.1-1.9-0.3c-1.7-0.6-3-2-3.4-3.5c-0.6-2.8,1.2-4.3,3.2-6.1l0.5-0.4
				c1.3-1.1,1.1-4.2,0.9-5.2c-0.2-0.8,0.4-1.7,1.2-1.8c0.8-0.1,1.7,0.4,1.8,1.2c0.1,0.6,0.9,5.7-1.9,8.1l-0.5,0.4
				c-2,1.7-2.4,2.1-2.2,3c0.1,0.5,0.7,1,1.4,1.3c0.5,0.2,1.5,0.4,2.5-0.4c0.7-0.5,1.7-0.4,2.2,0.3c0.3,0.3,0.4,0.7,0.3,1.1
				c0,0.4-0.3,0.8-0.6,1C36.9,52.3,35.6,52.8,34.4,52.8z M35.2,36.4C35.2,36.4,35.1,36.4,35.2,36.4c-0.4,0.1-0.6,0.3-0.5,0.6
				c0,0,0.8,4.4-1.2,6.1l-0.5,0.4c-2,1.7-3.4,2.9-2.9,5.1c0.3,1.2,1.3,2.3,2.7,2.8c1.6,0.5,3.2,0.3,4.5-0.8c0.1-0.1,0.2-0.2,0.2-0.4
				s0-0.3-0.1-0.4c-0.2-0.2-0.5-0.3-0.8-0.1c-1.4,1.1-2.8,0.8-3.5,0.6c-1-0.4-1.8-1.2-2-2c-0.4-1.6,0.6-2.4,2.5-4l0.5-0.4
				c2.4-2.1,1.7-6.6,1.6-7.1C35.7,36.6,35.4,36.4,35.2,36.4z"/>
		</g>
	</g>
	<g>
		<g>
			<path class="st9" d="M46.5,61.6c-0.9,0-1.5-0.1-1.6-0.1c-0.5-0.1-0.9-0.6-0.8-1.2c0.1-0.5,0.6-0.9,1.2-0.8l0,0
				c0.3,0,6.6,1.1,11.6-5.5c0.3-0.4,1-0.5,1.4-0.2c0.4,0.3,0.5,1,0.2,1.4C54.2,60.8,49,61.6,46.5,61.6z"/>
			<path class="st9" d="M46.5,62.1c-0.9,0-1.5-0.1-1.7-0.1c-0.4-0.1-0.7-0.3-1-0.6c-0.2-0.3-0.3-0.7-0.2-1.1
				c0.1-0.8,0.9-1.4,1.7-1.2c0.3,0,6.3,1,11.1-5.3c0.2-0.3,0.6-0.5,1-0.6c0.4-0.1,0.8,0,1.1,0.3c0.7,0.5,0.8,1.4,0.3,2.1
				C54.5,61.2,49.2,62.1,46.5,62.1z M45.1,60c-0.2,0-0.4,0.2-0.5,0.4c0,0.1,0,0.3,0.1,0.4c0.1,0.1,0.2,0.2,0.3,0.2
				c0.1,0,0.6,0.1,1.5,0.1c2.6,0,7.5-0.8,11.6-6.1c0.1-0.1,0.1-0.2,0.1-0.4c0-0.1-0.1-0.2-0.2-0.3s-0.2-0.1-0.4-0.1
				c-0.1,0-0.2,0.1-0.3,0.2C52.1,61.2,45.4,60.1,45.1,60C45.1,60,45.1,60,45.1,60z"/>
		</g>
	</g>
	<ellipse class="st10" cx="23.7" cy="36.9" rx="1.2" ry="1"/>
	<circle class="st10" cx="24.5" cy="43.6" r="1"/>
	<ellipse class="st10" cx="29.7" cy="37.7" rx="1.4" ry="1"/>
	<ellipse class="st10" cx="46.7" cy="36.8" rx="1.2" ry="0.9"/>
	<ellipse class="st10" cx="58.7" cy="36.5" rx="1.4" ry="1.2"/>
	<ellipse transform="matrix(0.9852 -0.1712 0.1712 0.9852 -6.6316 9.8377)" class="st10" cx="53.7" cy="43.4" rx="1.2" ry="1"/>
	
		<ellipse transform="matrix(0.9979 -6.464653e-02 6.464653e-02 0.9979 -2.0315 4.5223)" class="st10" cx="68.9" cy="33.7" rx="1.6" ry="1.3"/>
	<path class="st10" d="M74.5,74c0,0-14,5.3-25.9,7c0.4,4.2,0.6,7.8,0.6,11.7c0,3.9-0.1,3.9-0.1,3.9S71.1,87.4,74.5,74z"/>
	<g>
		<path class="st11" d="M50.3,7.9c1.3-0.8,2.5-1.3,3.8-1.6c1.3-0.4,2.6-0.6,4-0.6c1.3,0,2.7,0.1,3.9,0.5c1.3,0.3,2.5,0.8,3.7,1.4
			c0.5,0.2,0.7,0.8,0.5,1.3c-0.2,0.5-0.8,0.7-1.3,0.5l-0.1,0c-1.1-0.4-2.2-0.8-3.3-1c-1.1-0.2-2.3-0.3-3.4-0.2
			c-1.1,0.1-2.2,0.3-3.3,0.7c-0.5,0.2-1,0.4-1.5,0.6c-0.5,0.2-1,0.5-1.3,0.8l-0.1,0c-0.6,0.5-1.5,0.3-2-0.3
			C49.4,9.4,49.6,8.5,50.3,7.9C50.2,8,50.3,7.9,50.3,7.9z"/>
		<path class="st11" d="M51.1,11.1c-0.1,0-0.2,0-0.3,0c-0.5-0.1-1-0.4-1.3-0.8c-0.3-0.4-0.4-0.9-0.4-1.4c0.1-0.5,0.4-1,0.8-1.3
			c0,0,0.1-0.1,0.1-0.1c1.2-0.7,2.4-1.2,3.9-1.7c1.4-0.4,2.8-0.6,4.1-0.6c1.5,0,2.9,0.1,4.1,0.5c1.4,0.3,2.7,0.9,3.8,1.4
			c0.4,0.2,0.6,0.5,0.8,0.9c0.1,0.4,0.1,0.8-0.1,1.1c-0.3,0.7-1.2,1-1.9,0.7c-1.1-0.4-2.1-0.8-3.2-1c-1-0.2-2-0.3-3.3-0.2
			c-1,0.1-2.1,0.3-3.2,0.6c-0.5,0.2-1,0.4-1.5,0.6c-0.5,0.2-1,0.5-1.3,0.7C51.9,11,51.5,11.1,51.1,11.1z M58.2,6.2c0,0-0.1,0-0.1,0
			c-1.2,0-2.5,0.2-3.8,0.5c-1.5,0.4-2.6,0.9-3.7,1.6l-0.1,0c-0.2,0.1-0.3,0.4-0.4,0.6s0,0.5,0.2,0.7s0.4,0.3,0.6,0.4
			c0.3,0,0.5,0,0.7-0.2c0.4-0.3,1-0.6,1.5-0.9c0.5-0.3,1.1-0.5,1.6-0.7C55.9,8,57,7.7,58.1,7.7c1.3-0.1,2.5,0,3.5,0.2
			c1.2,0.2,2.3,0.6,3.4,1c0.3,0.1,0.6,0,0.7-0.2c0.1-0.1,0.1-0.3,0-0.4c0-0.1-0.1-0.2-0.3-0.3c-1-0.5-2.3-1-3.6-1.3
			C60.8,6.4,59.6,6.2,58.2,6.2z"/>
	</g>
	<g>
		<path class="st11" d="M22.5,7.4c1-0.2,1.8-0.3,2.7-0.3c0.9,0,1.8,0.1,2.7,0.3c0.9,0.2,1.8,0.7,2.6,1.2c0.8,0.6,1.4,1.4,1.9,2.2
			c0.3,0.5,0.1,1.1-0.3,1.4c-0.5,0.3-1,0.1-1.3-0.3l-0.1-0.1c-0.4-0.6-0.8-1.1-1.4-1.5c-0.6-0.4-1.2-0.7-1.9-0.8
			c-0.7-0.2-1.4-0.2-2.2-0.2c-0.7,0-1.5,0.1-2.2,0.3l0,0c-0.6,0.2-1.2-0.2-1.4-0.8C21.5,8.1,21.9,7.5,22.5,7.4
			C22.5,7.4,22.5,7.4,22.5,7.4z"/>
		<path class="st11" d="M31.5,12.8c-0.5,0-1-0.2-1.2-0.7l-0.1-0.1c-0.3-0.5-0.7-1-1.2-1.4c-0.5-0.4-1.1-0.6-1.7-0.8
			c-0.6-0.1-1.3-0.2-2-0.2c-0.7,0-1.5,0.1-2.1,0.3c-0.9,0.2-1.8-0.3-2-1.2c-0.2-0.9,0.3-1.8,1.2-2l0,0c0.9-0.2,1.8-0.3,2.8-0.3
			c1,0,2,0.1,2.9,0.4c1,0.3,1.9,0.7,2.7,1.3c0.9,0.7,1.6,1.7,2,2.3c0.2,0.3,0.3,0.7,0.2,1.1c-0.1,0.4-0.3,0.7-0.7,0.9
			C32.1,12.8,31.8,12.8,31.5,12.8z M25.5,8.7c0.7,0,1.4,0.1,2,0.2c0.7,0.2,1.4,0.5,2,0.9c0.7,0.4,1.1,1.1,1.5,1.6l0.1,0.1
			c0.1,0.2,0.4,0.3,0.7,0.1c0.1-0.1,0.2-0.2,0.2-0.3c0-0.1,0-0.3-0.1-0.4c-0.6-1-1.1-1.6-1.7-2c-0.7-0.5-1.5-0.9-2.4-1.2
			c-0.8-0.2-1.7-0.3-2.6-0.3c-1,0-1.8,0.1-2.6,0.3l-0.1-0.5l0.1,0.5l-0.1-0.5l0.1,0.5c-0.3,0.1-0.5,0.4-0.5,0.8
			c0.1,0.3,0.4,0.5,0.8,0.4c0.7-0.2,1.5-0.3,2.3-0.3C25.3,8.7,25.4,8.7,25.5,8.7z"/>
	</g>
	<g>
		<defs>
			<path id="SVGID_1_" d="M75.2,73.9c0,0-14,5.3-25.9,7c0.4,4.2,0.6,7.8,0.6,11.7c0,3.9-0.1,7-0.1,7s14.1-1.4,21.8-7.4
				C80.2,85.5,82.3,71.3,75.2,73.9z"/>
		</defs>
		<clipPath id="SVGID_2_">
			<use xlink:href="#SVGID_1_"  style="overflow:visible;"/>
		</clipPath>
	</g>
	<path class="st8" d="M50,82.3l-0.2-1.5L48.3,81c-5.3,0.9-16.2-0.4-22.6-7.5c-7.5-8.3-6.5-30.1-6-41.8c0.1-2.3,0.2-4.2,0.2-5.5
		c0-7.7-2.1-24.3-2.3-26.1h-3l0,0.2c0,0.2,2.3,18.1,2.3,26c0,1.3-0.1,3.2-0.2,5.4c-0.6,12.1-1.6,34.7,6.7,44
		c7.1,7.8,18.4,9.1,23.8,8.7c0.7,6.7,0.3,15.7,0.3,15.8l0,0.1h3C50.5,99.6,51,89.3,50,82.3z"/>
</g>
</svg>
